# xmcd
#
# Track frame offsets: 
#        182
#        21270
#        40607
#        67382
#        87070
#        111445
#        139395
#        167870
#        197207
#        218370
#        237307
#        273045
#
# Disc length: 3997 seconds
#
# Revision: 4
# Processed by: cddbd v1.5.2PL0 Copyright (c) Steve Scherf et al.
# Submitted via: ExactAudioCopy v0.99pb5
#
DISCID=ac0f9b0c
DTITLE=Larry Garner - Baton Rouge
DYEAR=1995
DGENRE=Blues
TTITLE0=Jook Joint Woman
TTITLE1=The Road Of Life
TTITLE2=Blues Pay My Way
TTITLE3=Help Yourself
TTITLE4=Street Doctor
TTITLE5=High On Music
TTITLE6=Airline Blues
TTITLE7=Crazy World
TTITLE8=The Haves And The Have Nots
TTITLE9=Gotta Have Some Gospel
TTITLE10=New Bad Habit
TTITLE11=Go To Baton Rouge
EXTD=
EXTT0=
EXTT1=
EXTT2=
EXTT3=
EXTT4=
EXTT5=
EXTT6=
EXTT7=
EXTT8=
EXTT9=
EXTT10=
EXTT11=
PLAYORDER=
